<svg width="20" height="21" viewBox="0 0 20 21" fill="none" xmlns="http://www.w3.org/2000/svg">
<path d="M9.16675 2.16666C13.3067 2.16666 16.6667 5.52666 16.6667 9.66666C16.6667 13.8067 13.3067 17.1667 9.16675 17.1667C5.02675 17.1667 1.66675 13.8067 1.66675 9.66666C1.66675 5.52666 5.02675 2.16666 9.16675 2.16666ZM9.16675 15.5C12.3897 15.5 15.0001 12.8896 15.0001 9.66666C15.0001 6.44375 12.3897 3.83333 9.16675 3.83333C5.94383 3.83333 3.33341 6.44375 3.33341 9.66666C3.33341 12.8896 5.94383 15.5 9.16675 15.5ZM16.2378 15.5592L18.5948 17.9162L17.4163 19.0947L15.0593 16.7377L16.2378 15.5592Z" fill="#2D2D2D"/>
</svg>
